<svg id="Capa_1" enable-background="new 0 0 512 512" height="512" viewBox="0 0 512 512" width="512" xmlns="http://www.w3.org/2000/svg"><g><g><g><path d="m99.782 287.371h-68.837v-37.907c0-5.179 4.198-9.377 9.377-9.377h50.083c5.179 0 9.377 4.198 9.377 9.377z" fill="#fde784"/></g><path d="m246.623 387.514h-237.246c-5.179 0-9.377-4.198-9.377-9.377v-81.32c0-10.358 8.397-18.755 18.755-18.755h118.623v-10.302h99.868v10.302c10.358 0 18.755 8.397 18.755 18.755h10.302v81.32h-10.303c0 5.178-4.198 9.377-9.377 9.377z" fill="#fdd330"/><path d="m256 296.812v81.324c0 5.176-4.201 9.377-9.377 9.377h-36.881c5.176 0 9.377-4.201 9.377-9.377v-81.324c0-10.353-8.402-18.755-18.755-18.755h36.881c10.362 0 18.755 8.402 18.755 18.755z" fill="#f8c52d"/></g><g><g><path d="m481.055 287.371h-68.837v-37.907c0-5.179 4.198-9.377 9.377-9.377h50.083c5.179 0 9.377 4.198 9.377 9.377z" fill="#fb8189"/></g><path d="m502.623 387.514h-237.246c-5.179 0-9.377-4.198-9.377-9.377v-81.32c0-10.358 8.397-18.755 18.755-18.755v-10.302h99.868v10.302h118.623c10.358 0 18.755 8.397 18.755 18.755v81.32c-.001 5.178-4.199 9.377-9.378 9.377z" fill="#fb4a59"/><path d="m512 296.812v81.324c0 5.176-4.201 9.377-9.377 9.377h-36.881c5.176 0 9.377-4.201 9.377-9.377v-81.324c0-10.353-8.402-18.755-18.755-18.755h36.881c10.362 0 18.755 8.402 18.755 18.755z" fill="#f82f40"/></g><g><g><g fill="#8dcafc"><path d="m227.782 171.77h-68.837v-37.907c0-5.179 4.198-9.377 9.377-9.377h50.083c5.179 0 9.377 4.198 9.377 9.377z"/><path d="m353.055 171.77h-68.837v-37.907c0-5.179 4.198-9.377 9.377-9.377h50.083c5.179 0 9.377 4.198 9.377 9.377z"/></g></g><path d="m374.623 278.094h-237.246c-5.179 0-9.377-4.198-9.377-9.377v-87.501c0-10.358 8.397-18.755 18.755-18.755h218.491c10.358 0 18.755 8.397 18.755 18.755v87.501c-.001 5.178-4.199 9.377-9.378 9.377z" fill="#31a7fb"/><path d="m384 181.211v87.505c0 5.176-4.201 9.377-9.377 9.377h-36.881c5.176 0 9.377-4.201 9.377-9.377v-87.505c0-10.353-8.402-18.755-18.755-18.755h36.881c10.362 0 18.755 8.402 18.755 18.755z" fill="#1c96f9"/></g></g></svg>