<svg id="color" enable-background="new 0 0 24 24" height="512" viewBox="0 0 24 24" width="512" xmlns="http://www.w3.org/2000/svg"><path d="m12 8.75c-.553 0-1-.447-1-1v-2.75c0-1.654-1.346-3-3-3s-3 1.346-3 3v2.75c0 .553-.447 1-1 1s-1-.447-1-1v-2.75c0-2.757 2.243-5 5-5s5 2.243 5 5v2.75c0 .553-.447 1-1 1z" fill="#90a4ae"/><path d="m13.75 20h-11.5c-1.24 0-2.25-1.01-2.25-2.25v-8.5c0-1.24 1.01-2.25 2.25-2.25h11.5c1.24 0 2.25 1.01 2.25 2.25v8.5c0 1.24-1.01 2.25-2.25 2.25z" fill="#ffc107"/><path d="m8 0c-2.757 0-5 2.243-5 5v2h2v-2c0-1.654 1.346-3 3-3z" fill="#7d8f97"/><path d="m8 7h-3-2-.75c-1.24 0-2.25 1.01-2.25 2.25v8.5c0 1.24 1.01 2.25 2.25 2.25h5.75z" fill="#dea806"/><path d="m20.152 24h-7.913c-1.786 0-3.239-1.436-3.239-3.2 0-1.642 1.257-2.997 2.87-3.179.497-2.092 2.418-3.621 4.63-3.621 1.741 0 3.348.949 4.172 2.439 1.889.247 3.328 1.846 3.328 3.761 0 2.095-1.726 3.8-3.848 3.8z" fill="#2196f3"/><path d="m16.5 14c-2.212 0-4.133 1.529-4.63 3.621-1.613.182-2.87 1.537-2.87 3.179 0 1.765 1.453 3.2 3.239 3.2h4.261z" fill="#1d83d4"/></svg>