<?xml version="1.0" encoding="iso-8859-1"?>
<!-- Generator: Adobe Illustrator 19.0.0, SVG Export Plug-In . SVG Version: 6.00 Build 0)  -->
<svg version="1.1" id="Capa_1" xmlns="http://www.w3.org/2000/svg" xmlns:xlink="http://www.w3.org/1999/xlink" x="0px" y="0px"
	 viewBox="0 0 464 464" style="enable-background:new 0 0 464 464;" xml:space="preserve">
<path style="fill:#B3B3B3;" d="M304,352L104,152c-17.673,17.672-46.327,17.672-64,0l-8-8c-17.672-17.673-17.672-46.327,0-64l16,16
	c13.255,13.253,34.745,13.253,48,0c13.253-13.255,13.253-34.745,0-48L80,32c17.673-17.672,46.327-17.672,64,0l8,8
	c17.672,17.673,17.672,46.327,0,64l200,200c17.673-17.672,46.327-17.672,64,0l16,16c17.672,17.673,17.672,46.327,0,64l-16-16
	c-13.255-13.253-34.745-13.253-48,0c-13.253,13.255-13.253,34.745,0,48l16,16c-17.673,17.672-46.327,17.672-64,0l-16-16
	C286.328,398.327,286.328,369.673,304,352z"/>
<path style="fill:#E6E6E6;" d="M440,0l24,24l-24,48h-24L240,248l-24-24L392,48V24L440,0z"/>
<path style="fill:#6CBBC7;" d="M216,312c-4.418-4.417-4.419-11.579-0.002-15.998c0.001-0.001,0.002-0.002,0.002-0.002l8-8
	c4.417-4.418,11.579-4.419,15.998-0.002c0.001,0.001,0.002,0.002,0.002,0.002l24-24l-64-64l-24,24
	c4.418,4.417,4.419,11.579,0.002,15.998c-0.001,0.001-0.002,0.002-0.002,0.002l-8,8c-4.417,4.418-11.579,4.419-15.998,0.002
	c-0.001-0.001-0.002-0.002-0.002-0.002L13.256,386.744C4.769,395.231,0,406.742,0,418.744C0,443.738,20.262,464,45.256,464
	c0,0,0,0,0,0c12.002,0,23.513-4.769,32-13.256L216,312z"/>
<g>
	<path style="fill:#36717A;" d="M26.338,402.35L146.338,282.35l11.314,11.314L37.652,413.664L26.338,402.35z"/>
	<path style="fill:#36717A;" d="M50.344,426.35L170.343,306.35l11.314,11.314L61.657,437.664L50.344,426.35z"/>
</g>
<g>
</g>
<g>
</g>
<g>
</g>
<g>
</g>
<g>
</g>
<g>
</g>
<g>
</g>
<g>
</g>
<g>
</g>
<g>
</g>
<g>
</g>
<g>
</g>
<g>
</g>
<g>
</g>
<g>
</g>
</svg>
